<?xml version="1.0" encoding="UTF-8"?>
<svg version="1.1" xmlns="http://www.w3.org/2000/svg" width="16" height="16">
<path d="M0 0 C1.65 0 3.3 0 5 0 C5 0.99 5 1.98 5 3 C5.66 3 6.32 3 7 3 C7 6.63 7 10.26 7 14 C4.03 14 1.06 14 -2 14 C-2 10.37 -2 6.74 -2 3 C-1.34 3 -0.68 3 0 3 C0 2.01 0 1.02 0 0 Z M1 1 C1 1.66 1 2.32 1 3 C1.99 3 2.98 3 4 3 C4 2.34 4 1.68 4 1 C3.01 1 2.02 1 1 1 Z " fill="#9E8A55" transform="translate(5,1)"/>
<path d="M0 0 C2.97 0 5.94 0 9 0 C9 0.99 9 1.98 9 3 C6.03 3 3.06 3 0 3 C0 2.01 0 1.02 0 0 Z " fill="#8E835F" transform="translate(3,12)"/>
</svg>
